# xmcd
#
# Track frame offsets: 
#        150
#        22799
#        78246
#        129310
#        170819
#        203521
#        237282
#        269277
#        271591
#        299703
#
# Disc length: 4189 seconds
#
# Revision: 1
# Processed by: cddbd v1.5.2PL0 Copyright (c) Steve Scherf et al.
# Submitted via: ExactAudioCopyFreeDBPlugin 1.0
#
DISCID=82105b0a
DTITLE=Donny McCaslin - Perpetual Motion
DYEAR=2010
DGENRE=Jazz
TTITLE0=Five Hands Down
TTITLE1=Perpetual Motion
TTITLE2=Claire
TTITLE3=Firefly
TTITLE4=Energy Generation
TTITLE5=Memphis Redux
TTITLE6=L.Z.C.M
TTITLE7=East Bay Grit
TTITLE8=Impossible Machine
TTITLE9=For Someone
EXTD=YEAR: 2010
EXTT0=
EXTT1=
EXTT2=
EXTT3=
EXTT4=
EXTT5=
EXTT6=
EXTT7=
EXTT8=
EXTT9=
PLAYORDER=
